<?xml version="1.0" encoding="UTF-8"?>
<svg id="_Слой_2" data-name="Слой 2" xmlns="http://www.w3.org/2000/svg" viewBox="0 0 666.67 666.67">
  <g id="_Слой_1-2" data-name="Слой 1">
    <path d="m333.33,666.67c-44.98,0-88.64-8.82-129.76-26.21-39.7-16.79-75.34-40.82-105.94-71.42-30.6-30.6-54.63-66.25-71.42-105.94C8.82,421.98,0,378.32,0,333.33s8.82-88.64,26.21-129.76c16.79-39.7,40.82-75.34,71.42-105.94,30.6-30.6,66.25-54.63,105.94-71.42C244.69,8.82,288.35,0,333.33,0s88.64,8.82,129.76,26.21c39.7,16.79,75.34,40.82,105.94,71.42,30.6,30.6,54.63,66.25,71.42,105.94,17.39,41.12,26.21,84.77,26.21,129.76s-8.82,88.64-26.21,129.76c-16.79,39.7-40.82,75.34-71.42,105.94-30.6,30.6-66.25,54.63-105.94,71.42-41.12,17.39-84.77,26.21-129.76,26.21Zm0-600c-147.04,0-266.67,119.63-266.67,266.67s119.63,266.67,266.67,266.67,266.67-119.63,266.67-266.67S480.37,66.67,333.33,66.67Zm-66.67,433.33c-40.05,0-77.44-18.12-81.57-20.18l29.81-59.63-.09-.05c7.46,3.67,31.32,13.19,51.85,13.19,18.58,0,35.13-6.62,54.29-14.28,22.32-8.93,47.63-19.05,79.05-19.05,40.05,0,77.44,18.12,81.57,20.19l-29.81,59.63.09.05c-7.46-3.67-31.32-13.19-51.85-13.19-18.58,0-35.13,6.62-54.29,14.28-22.32,8.93-47.63,19.05-79.05,19.05Zm233.33-133.33H166.67c-18.41,0-33.33-14.92-33.33-33.33s14.92-33.33,33.33-33.33h333.33c18.41,0,33.33,14.92,33.33,33.33s-14.92,33.33-33.33,33.33Zm-233.33-100c-40.05,0-77.44-18.12-81.57-20.18l29.81-59.63-.09-.05c7.46,3.67,31.32,13.19,51.85,13.19,18.58,0,35.13-6.62,54.29-14.28,22.32-8.93,47.63-19.05,79.05-19.05,40.05,0,77.44,18.12,81.57,20.19l-29.81,59.63.09.05c-7.46-3.67-31.32-13.19-51.85-13.19-18.58,0-35.13,6.62-54.29,14.28-22.32,8.93-47.63,19.05-79.05,19.05Z"/>
  </g>
</svg>