<?xml version="1.0" encoding="utf-8"?>
<!-- Generator: Adobe Illustrator 27.1.1, SVG Export Plug-In . SVG Version: 6.00 Build 0)  -->
<svg version="1.1" id="Слой_1" xmlns="http://www.w3.org/2000/svg" xmlns:xlink="http://www.w3.org/1999/xlink" x="0px" y="0px"
	 viewBox="0 0 800 800" style="enable-background:new 0 0 800 800;" xml:space="preserve">
<path d="M400,733.3c-45,0-88.6-8.8-129.8-26.2c-39.7-16.8-75.3-40.8-105.9-71.4c-30.6-30.6-54.6-66.2-71.4-105.9
	C75.5,488.6,66.7,445,66.7,400c0-45,8.8-88.6,26.2-129.8c16.8-39.7,40.8-75.3,71.4-105.9c30.6-30.6,66.2-54.6,105.9-71.4
	C311.4,75.5,355,66.7,400,66.7c45,0,88.6,8.8,129.8,26.2c39.7,16.8,75.3,40.8,105.9,71.4c30.6,30.6,54.6,66.2,71.4,105.9
	c17.4,41.1,26.2,84.8,26.2,129.8c0,45-8.8,88.6-26.2,129.8c-16.8,39.7-40.8,75.3-71.4,105.9c-30.6,30.6-66.2,54.6-105.9,71.4
	C488.6,724.5,445,733.3,400,733.3z M400,133.3C253,133.3,133.3,253,133.3,400S253,666.7,400,666.7S666.7,547,666.7,400
	S547,133.3,400,133.3z M333.3,566.7c-40,0-77.4-18.1-81.6-20.2l29.8-59.6l-0.1,0c7.5,3.7,31.3,13.2,51.9,13.2
	c18.6,0,35.1-6.6,54.3-14.3c22.3-8.9,47.6-19.1,79-19.1c40,0,77.4,18.1,81.6,20.2l-29.8,59.6l0.1,0c-7.5-3.7-31.3-13.2-51.9-13.2
	c-18.6,0-35.1,6.6-54.3,14.3C390.1,556.5,364.8,566.7,333.3,566.7z M566.7,433.3H233.3c-18.4,0-33.3-14.9-33.3-33.3
	s14.9-33.3,33.3-33.3h333.3c18.4,0,33.3,14.9,33.3,33.3S585.1,433.3,566.7,433.3z M333.3,333.3c-40,0-77.4-18.1-81.6-20.2l29.8-59.6
	l-0.1,0c7.5,3.7,31.3,13.2,51.9,13.2c18.6,0,35.1-6.6,54.3-14.3c22.3-8.9,47.6-19.1,79-19.1c40,0,77.4,18.1,81.6,20.2l-29.8,59.6
	l0.1,0c-7.5-3.7-31.3-13.2-51.9-13.2c-18.6,0-35.1,6.6-54.3,14.3C390.1,323.2,364.8,333.3,333.3,333.3z"/>
</svg>
