<svg width="235" height="26" viewBox="0 0 235 26" fill="none" xmlns="http://www.w3.org/2000/svg">
<path d="M18.18 20H13.84V4.46H5.16V20H0.82V0.399999H18.18V20ZM25.32 25.6H21.26V5.44H25.32V6.196C25.6747 5.86 26.1693 5.59867 26.804 5.412C27.4387 5.22533 28.0267 5.132 28.568 5.132C30.752 5.132 32.488 5.82267 33.776 7.204C35.0827 8.58533 35.736 10.3493 35.736 12.496C35.736 14.7173 35.064 16.5653 33.72 18.04C32.376 19.496 30.6213 20.224 28.456 20.224C26.7387 20.224 25.6933 19.9813 25.32 19.496V25.6ZM28.12 8.912C26.8693 8.912 25.936 9.46267 25.32 10.564V15.212C25.544 15.5853 25.908 15.884 26.412 16.108C26.916 16.332 27.4107 16.444 27.896 16.444C28.9973 16.444 29.8747 16.1173 30.528 15.464C31.2 14.792 31.536 13.9053 31.536 12.804C31.536 11.6093 31.256 10.6667 30.696 9.976C30.136 9.26667 29.2773 8.912 28.12 8.912ZM36.8569 12.692C36.8569 10.452 37.6129 8.632 39.1249 7.232C40.6369 5.832 42.5035 5.132 44.7249 5.132C46.9835 5.132 48.8689 5.84133 50.3809 7.26C51.8929 8.66 52.6489 10.4707 52.6489 12.692C52.6489 14.932 51.8835 16.752 50.3529 18.152C48.8222 19.5333 46.9462 20.224 44.7249 20.224C42.5035 20.224 40.6369 19.5147 39.1249 18.096C37.6129 16.6773 36.8569 14.876 36.8569 12.692ZM41.0569 12.692C41.0569 13.756 41.4022 14.652 42.0929 15.38C42.8022 16.0893 43.6795 16.444 44.7249 16.444C45.8449 16.444 46.7409 16.0987 47.4129 15.408C48.1035 14.7173 48.4489 13.812 48.4489 12.692C48.4489 11.5907 48.1035 10.6853 47.4129 9.976C46.7222 9.26667 45.8262 8.912 44.7249 8.912C43.6235 8.912 42.7369 9.26667 42.0649 9.976C41.3929 10.6853 41.0569 11.5907 41.0569 12.692ZM56.4317 23.136H52.6517V16.22H54.3037C55.2744 14.2413 55.7597 11.236 55.7597 7.204V5.44H67.2957V16.22H69.2557V23.136H65.4757V20H56.4317V23.136ZM63.2357 9.22H59.4837V10.116C59.4837 11.0307 59.3904 12.132 59.2037 13.42C59.0171 14.6893 58.7651 15.6227 58.4477 16.22H63.2357V9.22ZM72.6588 10.312L70.7268 7.372C71.4361 6.60667 72.3788 6.04667 73.5548 5.692C74.7495 5.31867 75.9441 5.132 77.1388 5.132C79.0241 5.132 80.4895 5.664 81.5348 6.728C82.5801 7.792 83.1028 9.276 83.1028 11.18V20H79.0428V18.684C78.6321 19.1507 78.0441 19.5147 77.2788 19.776C76.5321 20.0373 75.8135 20.168 75.1228 20.168C73.5921 20.168 72.3228 19.748 71.3148 18.908C70.3068 18.068 69.8028 16.9013 69.8028 15.408C69.8028 14.2693 70.1575 13.3267 70.8668 12.58C71.5761 11.8333 72.3975 11.32 73.3308 11.04C74.2828 10.76 75.3095 10.62 76.4108 10.62C77.5121 10.62 78.3895 10.7413 79.0428 10.984C79.0801 10.2747 78.8935 9.752 78.4828 9.416C78.0535 9.08 77.4561 8.912 76.6908 8.912C75.3281 8.912 73.9841 9.37867 72.6588 10.312ZM75.9628 16.668C76.5788 16.668 77.1761 16.5187 77.7548 16.22C78.3521 15.9213 78.7815 15.52 79.0428 15.016V14.344C78.3895 14.1013 77.6521 13.98 76.8308 13.98C76.1961 13.98 75.6548 14.036 75.2068 14.148C74.4041 14.4093 74.0028 14.8293 74.0028 15.408C74.0028 15.856 74.1988 16.1827 74.5908 16.388C75.0015 16.5747 75.4588 16.668 75.9628 16.668ZM84.0892 20L89.5212 11.992L84.0052 5.44H89.1012L92.9652 10.396V5.44H97.0252V10.424L101.085 5.44H105.985L100.441 11.992L105.985 20H101.029L97.5852 14.456L97.0252 15.128V20H92.9652V15.156L92.4052 14.484L88.9052 20H84.0892ZM108.26 10.312L106.328 7.372C107.038 6.60667 107.98 6.04667 109.156 5.692C110.351 5.31867 111.546 5.132 112.74 5.132C114.626 5.132 116.091 5.664 117.136 6.728C118.182 7.792 118.704 9.276 118.704 11.18V20H114.644V18.684C114.234 19.1507 113.646 19.5147 112.88 19.776C112.134 20.0373 111.415 20.168 110.724 20.168C109.194 20.168 107.924 19.748 106.916 18.908C105.908 18.068 105.404 16.9013 105.404 15.408C105.404 14.2693 105.759 13.3267 106.468 12.58C107.178 11.8333 107.999 11.32 108.932 11.04C109.884 10.76 110.911 10.62 112.012 10.62C113.114 10.62 113.991 10.7413 114.644 10.984C114.682 10.2747 114.495 9.752 114.084 9.416C113.655 9.08 113.058 8.912 112.292 8.912C110.93 8.912 109.586 9.37867 108.26 10.312ZM111.564 16.668C112.18 16.668 112.778 16.5187 113.356 16.22C113.954 15.9213 114.383 15.52 114.644 15.016V14.344C113.991 14.1013 113.254 13.98 112.432 13.98C111.798 13.98 111.256 14.036 110.808 14.148C110.006 14.4093 109.604 14.8293 109.604 15.408C109.604 15.856 109.8 16.1827 110.192 16.388C110.603 16.5747 111.06 16.668 111.564 16.668ZM131.824 20H127.764V5.44H131.824V10.648L136.976 5.44H142.24L135.632 11.908L142.38 20H137.228L132.72 14.484L131.824 15.408V20ZM150.686 20H143.35V5.44H149.706C150.359 5.44 150.947 5.468 151.47 5.524C151.993 5.56133 152.553 5.664 153.15 5.832C153.747 6 154.242 6.224 154.634 6.504C155.045 6.784 155.381 7.176 155.642 7.68C155.903 8.184 156.034 8.78133 156.034 9.472C156.034 9.88267 155.95 10.312 155.782 10.76C155.577 11.2267 155.213 11.7213 154.69 12.244C155.25 12.5053 155.67 12.944 155.95 13.56C156.249 14.176 156.398 14.82 156.398 15.492C156.398 17.0413 155.847 18.18 154.746 18.908C153.645 19.636 152.291 20 150.686 20ZM150.126 14.372H147.41V16.36H150.294C151.563 16.36 152.198 16.0427 152.198 15.408C152.198 15.0347 152.039 14.764 151.722 14.596C151.367 14.4467 150.835 14.372 150.126 14.372ZM149.622 9.08H147.41V10.872H150.462C151.377 10.872 151.834 10.5733 151.834 9.976C151.834 9.696 151.722 9.472 151.498 9.304C151.255 9.15467 150.63 9.08 149.622 9.08ZM160.241 10.312L158.309 7.372C159.018 6.60667 159.961 6.04667 161.137 5.692C162.332 5.31867 163.526 5.132 164.721 5.132C166.606 5.132 168.072 5.664 169.117 6.728C170.162 7.792 170.685 9.276 170.685 11.18V20H166.625V18.684C166.214 19.1507 165.626 19.5147 164.861 19.776C164.114 20.0373 163.396 20.168 162.705 20.168C161.174 20.168 159.905 19.748 158.897 18.908C157.889 18.068 157.385 16.9013 157.385 15.408C157.385 14.2693 157.74 13.3267 158.449 12.58C159.158 11.8333 159.98 11.32 160.913 11.04C161.865 10.76 162.892 10.62 163.993 10.62C165.094 10.62 165.972 10.7413 166.625 10.984C166.662 10.2747 166.476 9.752 166.065 9.416C165.636 9.08 165.038 8.912 164.273 8.912C162.91 8.912 161.566 9.37867 160.241 10.312ZM163.545 16.668C164.161 16.668 164.758 16.5187 165.337 16.22C165.934 15.9213 166.364 15.52 166.625 15.016V14.344C165.972 14.1013 165.234 13.98 164.413 13.98C163.778 13.98 163.237 14.036 162.789 14.148C161.986 14.4093 161.585 14.8293 161.585 15.408C161.585 15.856 161.781 16.1827 162.173 16.388C162.584 16.5747 163.041 16.668 163.545 16.668ZM177.187 25.6H173.127V5.44H177.187V6.196C177.542 5.86 178.037 5.59867 178.671 5.412C179.306 5.22533 179.894 5.132 180.435 5.132C182.619 5.132 184.355 5.82267 185.643 7.204C186.95 8.58533 187.603 10.3493 187.603 12.496C187.603 14.7173 186.931 16.5653 185.587 18.04C184.243 19.496 182.489 20.224 180.323 20.224C178.606 20.224 177.561 19.9813 177.187 19.496V25.6ZM179.987 8.912C178.737 8.912 177.803 9.46267 177.187 10.564V15.212C177.411 15.5853 177.775 15.884 178.279 16.108C178.783 16.332 179.278 16.444 179.763 16.444C180.865 16.444 181.742 16.1173 182.395 15.464C183.067 14.792 183.403 13.9053 183.403 12.804C183.403 11.6093 183.123 10.6667 182.563 9.976C182.003 9.26667 181.145 8.912 179.987 8.912ZM192.631 9.22H187.675V5.44H201.702V9.22H196.691V20H192.631V9.22ZM213.037 12.076L206.513 20H203.069V5.44H207.129V13.364L213.653 5.44H217.097V20H213.037V12.076ZM223.672 25.6H219.612V5.44H223.672V6.196C224.026 5.86 224.521 5.59867 225.156 5.412C225.79 5.22533 226.378 5.132 226.92 5.132C229.104 5.132 230.84 5.82267 232.128 7.204C233.434 8.58533 234.088 10.3493 234.088 12.496C234.088 14.7173 233.416 16.5653 232.072 18.04C230.728 19.496 228.973 20.224 226.808 20.224C225.09 20.224 224.045 19.9813 223.672 19.496V25.6ZM226.472 8.912C225.221 8.912 224.288 9.46267 223.672 10.564V15.212C223.896 15.5853 224.26 15.884 224.764 16.108C225.268 16.332 225.762 16.444 226.248 16.444C227.349 16.444 228.226 16.1173 228.88 15.464C229.552 14.792 229.888 13.9053 229.888 12.804C229.888 11.6093 229.608 10.6667 229.048 9.976C228.488 9.26667 227.629 8.912 226.472 8.912Z" fill="black"/>
</svg>
