<?xml version="1.0" encoding="UTF-8"?><!DOCTYPE svg PUBLIC "-//W3C//DTD SVG 1.1//EN" "http://www.w3.org/Graphics/SVG/1.1/DTD/svg11.dtd"><svg xmlns="http://www.w3.org/2000/svg" xmlns:xlink="http://www.w3.org/1999/xlink"><symbol id="icon" viewBox="0 0 800 800"><path d="M400 733.3c-45 0-88.6-8.8-129.8-26.2-39.7-16.8-75.3-40.8-105.9-71.4-30.6-30.6-54.6-66.2-71.4-105.9C75.5 488.6 66.7 445 66.7 400c0-45 8.8-88.6 26.2-129.8 16.8-39.7 40.8-75.3 71.4-105.9 30.6-30.6 66.2-54.6 105.9-71.4C311.4 75.5 355 66.7 400 66.7c45 0 88.6 8.8 129.8 26.2 39.7 16.8 75.3 40.8 105.9 71.4 30.6 30.6 54.6 66.2 71.4 105.9 17.4 41.1 26.2 84.8 26.2 129.8 0 45-8.8 88.6-26.2 129.8-16.8 39.7-40.8 75.3-71.4 105.9-30.6 30.6-66.2 54.6-105.9 71.4-41.2 17.4-84.8 26.2-129.8 26.2zm0-600C253 133.3 133.3 253 133.3 400S253 666.7 400 666.7 666.7 547 666.7 400 547 133.3 400 133.3zm-66.7 433.4c-40 0-77.4-18.1-81.6-20.2l29.8-59.6h-.1c7.5 3.7 31.3 13.2 51.9 13.2 18.6 0 35.1-6.6 54.3-14.3 22.3-8.9 47.6-19.1 79-19.1 40 0 77.4 18.1 81.6 20.2l-29.8 59.6h.1c-7.5-3.7-31.3-13.2-51.9-13.2-18.6 0-35.1 6.6-54.3 14.3-22.2 8.9-47.5 19.1-79 19.1zm233.4-133.4H233.3c-18.4 0-33.3-14.9-33.3-33.3s14.9-33.3 33.3-33.3h333.3c18.4 0 33.3 14.9 33.3 33.3s-14.8 33.3-33.2 33.3zm-233.4-100c-40 0-77.4-18.1-81.6-20.2l29.8-59.6h-.1c7.5 3.7 31.3 13.2 51.9 13.2 18.6 0 35.1-6.6 54.3-14.3 22.3-8.9 47.6-19.1 79-19.1 40 0 77.4 18.1 81.6 20.2l-29.8 59.6h.1c-7.5-3.7-31.3-13.2-51.9-13.2-18.6 0-35.1 6.6-54.3 14.3-22.2 9-47.5 19.1-79 19.1z"/></symbol><symbol id="icon2" viewBox="0 0 666.67 666.67"><path d="M333.33 666.67c-44.98 0-88.64-8.82-129.76-26.21-39.7-16.79-75.34-40.82-105.94-71.42-30.6-30.6-54.63-66.25-71.42-105.94C8.82 421.98 0 378.32 0 333.33s8.82-88.64 26.21-129.76C43 163.87 67.03 128.23 97.63 97.63c30.6-30.6 66.25-54.63 105.94-71.42C244.69 8.82 288.35 0 333.33 0s88.64 8.82 129.76 26.21c39.7 16.79 75.34 40.82 105.94 71.42 30.6 30.6 54.63 66.25 71.42 105.94 17.39 41.12 26.21 84.77 26.21 129.76s-8.82 88.64-26.21 129.76c-16.79 39.7-40.82 75.34-71.42 105.94-30.6 30.6-66.25 54.63-105.94 71.42-41.12 17.39-84.77 26.21-129.76 26.21Zm0-600c-147.04 0-266.67 119.63-266.67 266.67s119.63 266.67 266.67 266.67S600 480.38 600 333.34 480.37 66.67 333.33 66.67ZM266.66 500c-40.05 0-77.44-18.12-81.57-20.18l29.81-59.63-.09-.05c7.46 3.67 31.32 13.19 51.85 13.19 18.58 0 35.13-6.62 54.29-14.28C343.27 410.12 368.58 400 400 400c40.05 0 77.44 18.12 81.57 20.19l-29.81 59.63.09.05c-7.46-3.67-31.32-13.19-51.85-13.19-18.58 0-35.13 6.62-54.29 14.28-22.32 8.93-47.63 19.05-79.05 19.05Zm233.33-133.33H166.67c-18.41 0-33.33-14.92-33.33-33.33s14.92-33.33 33.33-33.33H500c18.41 0 33.33 14.92 33.33 33.33s-14.92 33.33-33.33 33.33Zm-233.33-100c-40.05 0-77.44-18.12-81.57-20.18l29.81-59.63-.09-.05c7.46 3.67 31.32 13.19 51.85 13.19 18.58 0 35.13-6.62 54.29-14.28 22.32-8.93 47.63-19.05 79.05-19.05 40.05 0 77.44 18.12 81.57 20.19l-29.81 59.63.09.05c-7.46-3.67-31.32-13.19-51.85-13.19-18.58 0-35.13 6.62-54.29 14.28-22.32 8.93-47.63 19.05-79.05 19.05Z"/></symbol><symbol id="logo"><path d="M18.18 20h-4.34V4.46H5.16V20H.82V.4h17.36V20Zm7.14 5.6h-4.06V5.44h4.06v.756c.355-.336.85-.597 1.484-.784.635-.187 1.223-.28 1.764-.28 2.184 0 3.92.69 5.208 2.072 1.307 1.381 1.96 3.145 1.96 5.292 0 2.221-.672 4.07-2.016 5.544-1.344 1.456-3.099 2.184-5.264 2.184-1.717 0-2.763-.243-3.136-.728V25.6Zm2.8-16.688c-1.25 0-2.184.55-2.8 1.652v4.648c.224.373.588.672 1.092.896.504.224.999.336 1.484.336 1.101 0 1.979-.327 2.632-.98.672-.672 1.008-1.559 1.008-2.66 0-1.195-.28-2.137-.84-2.828-.56-.71-1.419-1.064-2.576-1.064Zm8.737 3.78c0-2.24.756-4.06 2.268-5.46 1.512-1.4 3.379-2.1 5.6-2.1 2.258 0 4.144.71 5.656 2.128 1.512 1.4 2.268 3.21 2.268 5.432 0 2.24-.766 4.06-2.296 5.46-1.53 1.381-3.407 2.072-5.628 2.072s-4.088-.71-5.6-2.128c-1.512-1.419-2.268-3.22-2.268-5.404Zm4.2 0c0 1.064.345 1.96 1.036 2.688.71.71 1.586 1.064 2.632 1.064 1.12 0 2.016-.345 2.688-1.036.69-.69 1.036-1.596 1.036-2.716 0-1.101-.346-2.007-1.036-2.716-.69-.71-1.587-1.064-2.688-1.064-1.102 0-1.988.355-2.66 1.064-.672.71-1.008 1.615-1.008 2.716Zm15.375 10.444h-3.78V16.22h1.652c.97-1.979 1.456-4.984 1.456-9.016V5.44h11.536v10.78h1.96v6.916h-3.78V20h-9.044v3.136ZM63.236 9.22h-3.752v.896c0 .915-.094 2.016-.28 3.304-.187 1.27-.439 2.203-.756 2.8h4.788v-7Zm9.423 1.092-1.932-2.94c.71-.765 1.652-1.325 2.828-1.68 1.194-.373 2.39-.56 3.584-.56 1.885 0 3.35.532 4.396 1.596 1.045 1.064 1.568 2.548 1.568 4.452V20h-4.06v-1.316c-.41.467-.999.83-1.764 1.092-.747.261-1.465.392-2.156.392-1.53 0-2.8-.42-3.808-1.26-1.008-.84-1.512-2.007-1.512-3.5 0-1.139.355-2.081 1.064-2.828.71-.747 1.53-1.26 2.464-1.54.952-.28 1.978-.42 3.08-.42 1.101 0 1.978.121 2.632.364.037-.71-.15-1.232-.56-1.568-.43-.336-1.027-.504-1.792-.504-1.363 0-2.707.467-4.032 1.4Zm3.304 6.356c.616 0 1.213-.15 1.792-.448.597-.299 1.026-.7 1.288-1.204v-.672c-.654-.243-1.39-.364-2.212-.364-.635 0-1.176.056-1.624.168-.803.261-1.204.681-1.204 1.26 0 .448.196.775.588.98.41.187.868.28 1.372.28ZM84.089 20l5.432-8.008-5.516-6.552h5.096l3.864 4.956V5.44h4.06v4.984l4.06-4.984h4.9l-5.544 6.552L105.985 20h-4.956l-3.444-5.544-.56.672V20h-4.06v-4.844l-.56-.672-3.5 5.516H84.09Zm24.171-9.688-1.932-2.94c.71-.765 1.652-1.325 2.828-1.68 1.195-.373 2.39-.56 3.584-.56 1.886 0 3.351.532 4.396 1.596 1.046 1.064 1.568 2.548 1.568 4.452V20h-4.06v-1.316c-.41.467-.998.83-1.764 1.092-.746.261-1.465.392-2.156.392-1.53 0-2.8-.42-3.808-1.26-1.008-.84-1.512-2.007-1.512-3.5 0-1.139.355-2.081 1.064-2.828.71-.747 1.531-1.26 2.464-1.54.952-.28 1.979-.42 3.08-.42 1.102 0 1.979.121 2.632.364.038-.71-.149-1.232-.56-1.568-.429-.336-1.026-.504-1.792-.504-1.362 0-2.706.467-4.032 1.4Zm3.304 6.356a3.86 3.86 0 0 0 1.792-.448c.598-.299 1.027-.7 1.288-1.204v-.672c-.653-.243-1.39-.364-2.212-.364-.634 0-1.176.056-1.624.168-.802.261-1.204.681-1.204 1.26 0 .448.196.775.588.98.411.187.868.28 1.372.28ZM131.824 20h-4.06V5.44h4.06v5.208l5.152-5.208h5.264l-6.608 6.468L142.38 20h-5.152l-4.508-5.516-.896.924V20Zm18.862 0h-7.336V5.44h6.356c.653 0 1.241.028 1.764.084.523.037 1.083.14 1.68.308.597.168 1.092.392 1.484.672.411.28.747.672 1.008 1.176.261.504.392 1.101.392 1.792 0 .41-.084.84-.252 1.288-.205.467-.569.961-1.092 1.484.56.261.98.7 1.26 1.316a4.37 4.37 0 0 1 .448 1.932c0 1.55-.551 2.688-1.652 3.416-1.101.728-2.455 1.092-4.06 1.092Zm-.56-5.628h-2.716v1.988h2.884c1.269 0 1.904-.317 1.904-.952 0-.373-.159-.644-.476-.812-.355-.15-.887-.224-1.596-.224Zm-.504-5.292h-2.212v1.792h3.052c.915 0 1.372-.299 1.372-.896a.798.798 0 0 0-.336-.672c-.243-.15-.868-.224-1.876-.224Zm10.619 1.232-1.932-2.94c.709-.765 1.652-1.325 2.828-1.68a11.959 11.959 0 0 1 3.584-.56c1.885 0 3.351.532 4.396 1.596s1.568 2.548 1.568 4.452V20h-4.06v-1.316c-.411.467-.999.83-1.764 1.092-.747.261-1.465.392-2.156.392-1.531 0-2.8-.42-3.808-1.26-1.008-.84-1.512-2.007-1.512-3.5 0-1.139.355-2.081 1.064-2.828.709-.747 1.531-1.26 2.464-1.54.952-.28 1.979-.42 3.08-.42s1.979.121 2.632.364c.037-.71-.149-1.232-.56-1.568-.429-.336-1.027-.504-1.792-.504-1.363 0-2.707.467-4.032 1.4Zm3.304 6.356c.616 0 1.213-.15 1.792-.448.597-.299 1.027-.7 1.288-1.204v-.672c-.653-.243-1.391-.364-2.212-.364-.635 0-1.176.056-1.624.168-.803.261-1.204.681-1.204 1.26 0 .448.196.775.588.98.411.187.868.28 1.372.28Zm13.642 8.932h-4.06V5.44h4.06v.756c.355-.336.85-.597 1.484-.784.635-.187 1.223-.28 1.764-.28 2.184 0 3.92.69 5.208 2.072 1.307 1.381 1.96 3.145 1.96 5.292 0 2.221-.672 4.07-2.016 5.544-1.344 1.456-3.098 2.184-5.264 2.184-1.717 0-2.762-.243-3.136-.728V25.6Zm2.8-16.688c-1.25 0-2.184.55-2.8 1.652v4.648c.224.373.588.672 1.092.896.504.224.999.336 1.484.336 1.102 0 1.979-.327 2.632-.98.672-.672 1.008-1.559 1.008-2.66 0-1.195-.28-2.137-.84-2.828-.56-.71-1.418-1.064-2.576-1.064Zm12.644.308h-4.956V5.44h14.027v3.78h-5.011V20h-4.06V9.22Zm20.406 2.856L206.513 20h-3.444V5.44h4.06v7.924l6.524-7.924h3.444V20h-4.06v-7.924ZM223.672 25.6h-4.06V5.44h4.06v.756c.354-.336.849-.597 1.484-.784a6.273 6.273 0 0 1 1.764-.28c2.184 0 3.92.69 5.208 2.072 1.306 1.381 1.96 3.145 1.96 5.292 0 2.221-.672 4.07-2.016 5.544-1.344 1.456-3.099 2.184-5.264 2.184-1.718 0-2.763-.243-3.136-.728V25.6Zm2.8-16.688c-1.251 0-2.184.55-2.8 1.652v4.648c.224.373.588.672 1.092.896.504.224.998.336 1.484.336 1.101 0 1.978-.327 2.632-.98.672-.672 1.008-1.559 1.008-2.66 0-1.195-.28-2.137-.84-2.828-.56-.71-1.419-1.064-2.576-1.064Z"/></symbol></svg>